<?xml version="1.0" encoding="UTF-8"?>
<svg width="100mm" height="100mm" version="1.1" viewBox="0 0 100 100" xmlns="http://www.w3.org/2000/svg">
 <g>
  <rect width="100" height="100" stroke-width=".55574"/>
  <g transform="translate(-76.216 -8.1855)">
   <path d="m154.93 83.062-15.504-15.504c3.3554-4.1075 5.2066-9.2794 5.2066-14.926 0-13.294-10.775-24.066-24.066-24.066-13.291 0-23.962 10.775-23.962 24.066 0 13.291 10.774 24.066 23.962 24.066 5.6452 0 10.824-1.9565 14.926-5.2113l15.504 15.504c0.64794 0.54843 1.3653 0.81455 2.0711 0.81455s1.4208-0.27121 1.9635-0.81351c1.0795-1.084 1.0795-2.8427-0.10066-3.9303zm-52.772-30.43c0-10.207 8.3052-18.513 18.513-18.513 10.207 0 18.512 8.3052 18.512 18.513 0 10.207-8.3052 18.513-18.512 18.513-10.207 0-18.513-8.3075-18.513-18.513z" fill="#fff" stroke-width=".1157"/>
  </g>
 </g>
</svg>
